<svg width="208" height="208" viewBox="0 0 208 208" fill="none" xmlns="http://www.w3.org/2000/svg">
<rect width="208" height="208" rx="104" fill="black"/>
<path d="M35.7571 150H11.9531L42.8714 58.3636H72.358L103.276 150H79.4723L57.9503 81.4517H57.2344L35.7571 150ZM32.5803 113.936H82.3359V130.76H32.5803V113.936ZM192.015 91.5639H169.643C169.345 89.267 168.733 87.1939 167.809 85.3445C166.884 83.495 165.661 81.9141 164.14 80.6016C162.618 79.2891 160.814 78.2898 158.726 77.6037C156.667 76.8878 154.385 76.5298 151.88 76.5298C147.435 76.5298 143.602 77.6186 140.381 79.7962C137.189 81.9737 134.728 85.1207 132.998 89.2372C131.297 93.3537 130.447 98.3352 130.447 104.182C130.447 110.267 131.312 115.368 133.042 119.484C134.802 123.571 137.263 126.658 140.425 128.746C143.617 130.805 147.39 131.834 151.746 131.834C154.192 131.834 156.414 131.521 158.412 130.894C160.441 130.268 162.216 129.358 163.737 128.165C165.288 126.942 166.556 125.465 167.54 123.735C168.555 121.975 169.256 119.991 169.643 117.784L192.015 117.918C191.628 121.975 190.449 125.972 188.481 129.91C186.542 133.847 183.872 137.442 180.471 140.693C177.071 143.915 172.925 146.48 168.032 148.389C163.17 150.298 157.592 151.253 151.298 151.253C143.006 151.253 135.578 149.433 129.015 145.794C122.483 142.125 117.322 136.786 113.534 129.776C109.746 122.766 107.851 114.234 107.851 104.182C107.851 94.0994 109.775 85.5533 113.623 78.5433C117.471 71.5334 122.677 66.2088 129.239 62.5696C135.802 58.9304 143.155 57.1108 151.298 57.1108C156.846 57.1108 161.977 57.8864 166.69 59.4375C171.403 60.9588 175.55 63.196 179.129 66.1491C182.709 69.0724 185.617 72.6669 187.854 76.9325C190.091 81.1982 191.479 86.0753 192.015 91.5639Z" fill="white"/>
</svg>
